<svg width="42" height="42" viewBox="0 0 42 42" fill="none" xmlns="http://www.w3.org/2000/svg">
<g clip-path="url(#clip0_8_51)">
<path d="M35 29.75H38.5V33.25H3.5V29.75H7V17.5C7 13.787 8.475 10.226 11.1005 7.60051C13.726 4.975 17.287 3.5 21 3.5C24.713 3.5 28.274 4.975 30.8995 7.60051C33.525 10.226 35 13.787 35 17.5V29.75ZM31.5 29.75V17.5C31.5 14.7152 30.3938 12.0445 28.4246 10.0754C26.4555 8.10625 23.7848 7 21 7C18.2152 7 15.5445 8.10625 13.5754 10.0754C11.6062 12.0445 10.5 14.7152 10.5 17.5V29.75H31.5ZM15.75 36.75H26.25V40.25H15.75V36.75Z" fill="white"/>
</g>
<defs>
<clipPath id="clip0_8_51">
<rect width="42" height="42" fill="white"/>
</clipPath>
</defs>
</svg>
