<svg width="35" height="35" viewBox="0 0 35 35" fill="none" xmlns="http://www.w3.org/2000/svg">
<path d="M17.5 0.416656C26.93 0.416656 34.5833 8.06999 34.5833 17.5C34.5833 26.93 26.93 34.5833 17.5 34.5833C8.06999 34.5833 0.416656 26.93 0.416656 17.5C0.416656 8.06999 8.06999 0.416656 17.5 0.416656ZM17.5 24.3333C21.2805 24.3333 24.3333 21.2805 24.3333 17.5C24.3333 13.7194 21.2805 10.6667 17.5 10.6667C13.7194 10.6667 10.6667 13.7194 10.6667 17.5C10.6667 21.2805 13.7194 24.3333 17.5 24.3333ZM17.5 15.7917C18.4396 15.7917 19.2083 16.5604 19.2083 17.5C19.2083 18.4396 18.4396 19.2083 17.5 19.2083C16.5604 19.2083 15.7917 18.4396 15.7917 17.5C15.7917 16.5604 16.5604 15.7917 17.5 15.7917Z" fill="white"/>
</svg>
