<svg width="30" height="32" viewBox="0 0 30 32" fill="none" xmlns="http://www.w3.org/2000/svg">
<path d="M16.6667 28.6667H26.6667V13.63L15 4.55666L3.33333 13.63V28.6667H13.3333V18.6667H16.6667V28.6667ZM30 30.3333C30 30.7754 29.8244 31.1993 29.5118 31.5118C29.1993 31.8244 28.7754 32 28.3333 32H1.66667C1.22464 32 0.800716 31.8244 0.488156 31.5118C0.175595 31.1993 4.01184e-07 30.7754 4.01184e-07 30.3333V12.8167C-0.000175806 12.5627 0.0576953 12.312 0.169193 12.0838C0.280691 11.8556 0.442867 11.6559 0.643334 11.5L13.9767 1.13C14.2692 0.902404 14.6293 0.778839 15 0.778839C15.3707 0.778839 15.7308 0.902404 16.0233 1.13L29.3567 11.5C29.5571 11.6559 29.7193 11.8556 29.8308 12.0838C29.9423 12.312 30.0002 12.5627 30 12.8167V30.3333Z" fill="white"/>
</svg>