<svg width="35" height="35" viewBox="0 0 35 35" fill="none" xmlns="http://www.w3.org/2000/svg">
<path d="M27.0517 24.695L34.19 31.8317L31.8317 34.19L24.695 27.0517C22.0396 29.1804 18.7367 30.3382 15.3333 30.3333C7.05334 30.3333 0.333344 23.6133 0.333344 15.3333C0.333344 7.05334 7.05334 0.333344 15.3333 0.333344C23.6133 0.333344 30.3333 7.05334 30.3333 15.3333C30.3382 18.7367 29.1804 22.0396 27.0517 24.695ZM23.7083 23.4583C25.8235 21.2832 27.0048 18.3674 27 15.3333C27 8.88668 21.7783 3.66668 15.3333 3.66668C8.88668 3.66668 3.66668 8.88668 3.66668 15.3333C3.66668 21.7783 8.88668 27 15.3333 27C18.3674 27.0048 21.2832 25.8235 23.4583 23.7083L23.7083 23.4583Z" fill="white"/>
</svg>
