<svg width="28" height="34" viewBox="0 0 28 34" fill="none" xmlns="http://www.w3.org/2000/svg">
<path d="M23.3334 18.3896L2.03544 32.5875C1.87857 32.6919 1.69633 32.7518 1.50813 32.7608C1.31992 32.7698 1.1328 32.7276 0.966686 32.6387C0.800574 32.5497 0.661696 32.4174 0.564841 32.2558C0.467987 32.0942 0.416784 31.9093 0.416687 31.7209V2.27921C0.416784 2.09079 0.467987 1.90592 0.564841 1.7443C0.661696 1.58268 0.800574 1.45035 0.966686 1.36141C1.1328 1.27248 1.31992 1.23027 1.50813 1.23927C1.69633 1.24827 1.87857 1.30816 2.03544 1.41254L23.3334 15.6105V2.41671C23.3334 1.86417 23.5528 1.33427 23.9435 0.943569C24.3342 0.552868 24.8642 0.333374 25.4167 0.333374C25.9692 0.333374 26.4991 0.552868 26.8898 0.943569C27.2805 1.33427 27.5 1.86417 27.5 2.41671V31.5834C27.5 32.1359 27.2805 32.6658 26.8898 33.0565C26.4991 33.4472 25.9692 33.6667 25.4167 33.6667C24.8642 33.6667 24.3342 33.4472 23.9435 33.0565C23.5528 32.6658 23.3334 32.1359 23.3334 31.5834V18.3896ZM4.58335 8.11879V25.8813L17.9042 17L4.58335 8.11879Z" fill="white"/>
</svg>
