<svg width="28" height="34" viewBox="0 0 28 34" fill="none" xmlns="http://www.w3.org/2000/svg">
<path d="M4.66665 15.6104L25.9646 1.41246C26.1214 1.30807 26.3037 1.24819 26.4919 1.23919C26.6801 1.23018 26.8672 1.2724 27.0333 1.36133C27.1994 1.45027 27.3383 1.58259 27.4352 1.74421C27.532 1.90583 27.5832 2.0907 27.5833 2.27912L27.5833 31.7208C27.5832 31.9092 27.532 32.0941 27.4352 32.2557C27.3383 32.4173 27.1994 32.5497 27.0333 32.6386C26.8672 32.7275 26.6801 32.7697 26.4919 32.7607C26.3037 32.7517 26.1214 32.6918 25.9646 32.5875L4.66665 18.3895L4.66665 31.5833C4.66665 32.1358 4.44715 32.6657 4.05645 33.0564C3.66575 33.4471 3.13585 33.6666 2.58331 33.6666C2.03078 33.6666 1.50087 33.4471 1.11017 33.0564C0.719473 32.6657 0.499981 32.1358 0.499981 31.5833L0.499981 2.41662C0.499981 1.86409 0.719473 1.33418 1.11017 0.943481C1.50087 0.55278 2.03078 0.33329 2.58331 0.33329C3.13585 0.33329 3.66575 0.55278 4.05645 0.943481C4.44715 1.33418 4.66665 1.86409 4.66665 2.41662V15.6104ZM23.4166 25.8812L23.4166 8.11871L10.0958 17L23.4166 25.8812Z" fill="white"/>
</svg>
